solid OpenSCAD_Model
  facet normal -1 0 0
    outer loop
      vertex -11 -3 0
      vertex -11 12.9 8
      vertex -11 12.9 0
    endloop
  endfacet
  facet normal -1 -0 0
    outer loop
      vertex -11 12.9 8
      vertex -11 -3 0
      vertex -11 -3 8
    endloop
  endfacet
  facet normal 1 -0 0
    outer loop
      vertex 0 8.25 8
      vertex 0 9.9 0
      vertex 0 9.9 8
    endloop
  endfacet
  facet normal 1 0 0
    outer loop
      vertex 0 9.9 0
      vertex 0 8.25 8
      vertex 0 8.25 0
    endloop
  endfacet
  facet normal 1 -0 0
    outer loop
      vertex 0 0 8
      vertex 0 1.65 0
      vertex 0 1.65 8
    endloop
  endfacet
  facet normal 1 0 0
    outer loop
      vertex 0 1.65 0
      vertex 0 0 8
      vertex 0 0 0
    endloop
  endfacet
  facet normal 0 0 -1
    outer loop
      vertex 0 0 0
      vertex 5 -1.5 0
      vertex 0 -3 0
    endloop
  endfacet
  facet normal 0 0 -1
    outer loop
      vertex 5 -1.5 0
      vertex 0 0 0
      vertex 5 0 0
    endloop
  endfacet
  facet normal 0 0 -1
    outer loop
      vertex -1.69654 2.1195 0
      vertex 0 0 0
      vertex 0 -3 0
    endloop
  endfacet
  facet normal 0 0 -1
    outer loop
      vertex 0 0 0
      vertex -0.161922 1.65397 0
      vertex 0 1.65 0
    endloop
  endfacet
  facet normal 0 0 -1
    outer loop
      vertex 0 0 0
      vertex -0.323456 1.66589 0
      vertex -0.161922 1.65397 0
    endloop
  endfacet
  facet normal 0 0 -1
    outer loop
      vertex 0 0 0
      vertex -0.48421 1.68572 0
      vertex -0.323456 1.66589 0
    endloop
  endfacet
  facet normal 0 0 -1
    outer loop
      vertex 0 0 0
      vertex -0.643798 1.71341 0
      vertex -0.48421 1.68572 0
    endloop
  endfacet
  facet normal 0 0 -1
    outer loop
      vertex 0 0 0
      vertex -0.801834 1.7489 0
      vertex -0.643798 1.71341 0
    endloop
  endfacet
  facet normal 0 0 -1
    outer loop
      vertex 0 0 0
      vertex -0.957939 1.7921 0
      vertex -0.801834 1.7489 0
    endloop
  endfacet
  facet normal 0 0 -1
    outer loop
      vertex 0 0 0
      vertex -1.11174 1.8429 0
      vertex -0.957939 1.7921 0
    endloop
  endfacet
  facet normal 0 0 -1
    outer loop
      vertex 0 0 0
      vertex -1.26285 1.9012 0
      vertex -1.11174 1.8429 0
    endloop
  endfacet
  facet normal 0 0 -1
    outer loop
      vertex 0 0 0
      vertex -1.41093 1.96684 0
      vertex -1.26285 1.9012 0
    endloop
  endfacet
  facet normal 0 0 -1
    outer loop
      vertex 0 0 0
      vertex -1.55561 2.03966 0
      vertex -1.41093 1.96684 0
    endloop
  endfacet
  facet normal 0 0 -1
    outer loop
      vertex 0 0 0
      vertex -1.69654 2.1195 0
      vertex -1.55561 2.03966 0
    endloop
  endfacet
  facet normal 0 0 -1
    outer loop
      vertex 0 -3 0
      vertex -1.83338 2.20615 0
      vertex -1.69654 2.1195 0
    endloop
  endfacet
  facet normal 0 0 -1
    outer loop
      vertex 0 -3 0
      vertex -1.96581 2.29941 0
      vertex -1.83338 2.20615 0
    endloop
  endfacet
  facet normal 0 0 -1
    outer loop
      vertex 0 -3 0
      vertex -2.0935 2.39907 0
      vertex -1.96581 2.29941 0
    endloop
  endfacet
  facet normal 0 0 -1
    outer loop
      vertex -11 -3 0
      vertex -2.0935 2.39907 0
      vertex 0 -3 0
    endloop
  endfacet
  facet normal -0 0 -1
    outer loop
      vertex -2.0935 2.39907 0
      vertex -11 -3 0
      vertex -2.21614 2.50486 0
    endloop
  endfacet
  facet normal -0 0 -1
    outer loop
      vertex -2.21614 2.50486 0
      vertex -11 -3 0
      vertex -2.33345 2.61655 0
    endloop
  endfacet
  facet normal -0 0 -1
    outer loop
      vertex -2.33345 2.61655 0
      vertex -11 -3 0
      vertex -2.44514 2.73386 0
    endloop
  endfacet
  facet normal -0 0 -1
    outer loop
      vertex -2.44514 2.73386 0
      vertex -11 -3 0
      vertex -2.55093 2.8565 0
    endloop
  endfacet
  facet normal -0 0 -1
    outer loop
      vertex -2.55093 2.8565 0
      vertex -11 -3 0
      vertex -2.65058 2.98419 0
    endloop
  endfacet
  facet normal -0 0 -1
    outer loop
      vertex -2.65058 2.98419 0
      vertex -11 -3 0
      vertex -2.74385 3.11662 0
    endloop
  endfacet
  facet normal -0 0 -1
    outer loop
      vertex -2.74385 3.11662 0
      vertex -11 -3 0
      vertex -2.8305 3.25346 0
    endloop
  endfacet
  facet normal -0 0 -1
    outer loop
      vertex -2.8305 3.25346 0
      vertex -11 -3 0
      vertex -2.91034 3.39439 0
    endloop
  endfacet
  facet normal -0 0 -1
    outer loop
      vertex -3.29602 4.78808 0
      vertex -11 -3 0
      vertex -3.3 4.95 0
    endloop
  endfacet
  facet normal -0 0 -1
    outer loop
      vertex -3.28411 4.62654 0
      vertex -11 -3 0
      vertex -3.29602 4.78808 0
    endloop
  endfacet
  facet normal -0 0 -1
    outer loop
      vertex -3.26428 4.46579 0
      vertex -11 -3 0
      vertex -3.28411 4.62654 0
    endloop
  endfacet
  facet normal -0 0 -1
    outer loop
      vertex -3.23659 4.3062 0
      vertex -11 -3 0
      vertex -3.26428 4.46579 0
    endloop
  endfacet
  facet normal -0 0 -1
    outer loop
      vertex -3.2011 4.14816 0
      vertex -11 -3 0
      vertex -3.23659 4.3062 0
    endloop
  endfacet
  facet normal -0 0 -1
    outer loop
      vertex -3.1579 3.99206 0
      vertex -11 -3 0
      vertex -3.2011 4.14816 0
    endloop
  endfacet
  facet normal -0 0 -1
    outer loop
      vertex -3.10709 3.83826 0
      vertex -11 -3 0
      vertex -3.1579 3.99206 0
    endloop
  endfacet
  facet normal -0 0 -1
    outer loop
      vertex -3.0488 3.68714 0
      vertex -11 -3 0
      vertex -3.10709 3.83826 0
    endloop
  endfacet
  facet normal -0 0 -1
    outer loop
      vertex -2.98316 3.53907 0
      vertex -11 -3 0
      vertex -3.0488 3.68714 0
    endloop
  endfacet
  facet normal -0 0 -1
    outer loop
      vertex -2.91034 3.39439 0
      vertex -11 -3 0
      vertex -2.98316 3.53907 0
    endloop
  endfacet
  facet normal 0 0 -1
    outer loop
      vertex 5 0 0
      vertex 6.73277 -0.75 0
      vertex 5 -1.5 0
    endloop
  endfacet
  facet normal 0 0 -1
    outer loop
      vertex 6.73277 -0.75 0
      vertex 5 0 0
      vertex 5.27249 0.272491 0
    endloop
  endfacet
  facet normal -0 0 -1
    outer loop
      vertex 5.27249 0.272491 0
      vertex 5 0 0
      vertex 5 0.272491 0
    endloop
  endfacet
  facet normal 0 0 -1
    outer loop
      vertex 5 9.9 0
      vertex 5.27249 9.62751 0
      vertex 5 9.62751 0
    endloop
  endfacet
  facet normal 0 0 -1
    outer loop
      vertex 5.27249 9.62751 0
      vertex 5 9.9 0
      vertex 6.73277 10.65 0
    endloop
  endfacet
  facet normal 0 0 -1
    outer loop
      vertex 5 9.9 0
      vertex 5 11.4 0
      vertex 6.73277 10.65 0
    endloop
  endfacet
  facet normal 0 0 -1
    outer loop
      vertex 0 9.9 0
      vertex 5 11.4 0
      vertex 5 9.9 0
    endloop
  endfacet
  facet normal 0 0 -1
    outer loop
      vertex 0 12.9 0
      vertex 5 11.4 0
      vertex 0 9.9 0
    endloop
  endfacet
  facet normal 0 0 -1
    outer loop
      vertex -0.161922 8.24602 0
      vertex 0 9.9 0
      vertex 0 8.25 0
    endloop
  endfacet
  facet normal 0 0 -1
    outer loop
      vertex -0.323456 8.23411 0
      vertex 0 9.9 0
      vertex -0.161922 8.24602 0
    endloop
  endfacet
  facet normal 0 0 -1
    outer loop
      vertex -0.48421 8.21428 0
      vertex 0 9.9 0
      vertex -0.323456 8.23411 0
    endloop
  endfacet
  facet normal 0 0 -1
    outer loop
      vertex -0.643798 8.18659 0
      vertex 0 9.9 0
      vertex -0.48421 8.21428 0
    endloop
  endfacet
  facet normal 0 0 -1
    outer loop
      vertex -0.801834 8.1511 0
      vertex 0 9.9 0
      vertex -0.643798 8.18659 0
    endloop
  endfacet
  facet normal 0 0 -1
    outer loop
      vertex -0.957939 8.1079 0
      vertex 0 9.9 0
      vertex -0.801834 8.1511 0
    endloop
  endfacet
  facet normal 0 0 -1
    outer loop
      vertex -1.11174 8.05709 0
      vertex 0 9.9 0
      vertex -0.957939 8.1079 0
    endloop
  endfacet
  facet normal 0 0 -1
    outer loop
      vertex -1.26285 7.9988 0
      vertex 0 9.9 0
      vertex -1.11174 8.05709 0
    endloop
  endfacet
  facet normal 0 0 -1
    outer loop
      vertex -1.41093 7.93316 0
      vertex 0 9.9 0
      vertex -1.26285 7.9988 0
    endloop
  endfacet
  facet normal 0 0 -1
    outer loop
      vertex -1.55561 7.86034 0
      vertex 0 9.9 0
      vertex -1.41093 7.93316 0
    endloop
  endfacet
  facet normal 0 0 -1
    outer loop
      vertex -1.69654 7.7805 0
      vertex 0 9.9 0
      vertex -1.55561 7.86034 0
    endloop
  endfacet
  facet normal -0 0 -1
    outer loop
      vertex 0 9.9 0
      vertex -1.69654 7.7805 0
      vertex 0 12.9 0
    endloop
  endfacet
  facet normal 0 0 -1
    outer loop
      vertex -1.83338 7.69385 0
      vertex 0 12.9 0
      vertex -1.69654 7.7805 0
    endloop
  endfacet
  facet normal 0 0 -1
    outer loop
      vertex -1.96581 7.60058 0
      vertex 0 12.9 0
      vertex -1.83338 7.69385 0
    endloop
  endfacet
  facet normal 0 0 -1
    outer loop
      vertex -2.0935 7.50093 0
      vertex 0 12.9 0
      vertex -1.96581 7.60058 0
    endloop
  endfacet
  facet normal 0 0 -1
    outer loop
      vertex -11 12.9 0
      vertex -2.0935 7.50093 0
      vertex -2.21614 7.39514 0
    endloop
  endfacet
  facet normal 0 0 -1
    outer loop
      vertex -11 12.9 0
      vertex -2.21614 7.39514 0
      vertex -2.33345 7.28345 0
    endloop
  endfacet
  facet normal 0 0 -1
    outer loop
      vertex -11 12.9 0
      vertex -2.33345 7.28345 0
      vertex -2.44514 7.16614 0
    endloop
  endfacet
  facet normal 0 0 -1
    outer loop
      vertex -11 12.9 0
      vertex -2.44514 7.16614 0
      vertex -2.55093 7.0435 0
    endloop
  endfacet
  facet normal 0 0 -1
    outer loop
      vertex -11 12.9 0
      vertex -2.55093 7.0435 0
      vertex -2.65058 6.91581 0
    endloop
  endfacet
  facet normal 0 0 -1
    outer loop
      vertex -11 12.9 0
      vertex -2.65058 6.91581 0
      vertex -2.74385 6.78338 0
    endloop
  endfacet
  facet normal 0 0 -1
    outer loop
      vertex -11 12.9 0
      vertex -2.74385 6.78338 0
      vertex -2.8305 6.64654 0
    endloop
  endfacet
  facet normal 0 0 -1
    outer loop
      vertex -11 12.9 0
      vertex -2.8305 6.64654 0
      vertex -2.91034 6.50561 0
    endloop
  endfacet
  facet normal 0 0 -1
    outer loop
      vertex -11 12.9 0
      vertex -2.91034 6.50561 0
      vertex -2.98316 6.36093 0
    endloop
  endfacet
  facet normal 0 0 -1
    outer loop
      vertex -11 12.9 0
      vertex -3.3 4.95 0
      vertex -11 -3 0
    endloop
  endfacet
  facet normal 0 0 -1
    outer loop
      vertex -3.3 4.95 0
      vertex -11 12.9 0
      vertex -3.29602 5.11192 0
    endloop
  endfacet
  facet normal 0 0 -1
    outer loop
      vertex -3.29602 5.11192 0
      vertex -11 12.9 0
      vertex -3.28411 5.27346 0
    endloop
  endfacet
  facet normal 0 0 -1
    outer loop
      vertex -3.28411 5.27346 0
      vertex -11 12.9 0
      vertex -3.26428 5.43421 0
    endloop
  endfacet
  facet normal 0 0 -1
    outer loop
      vertex -3.26428 5.43421 0
      vertex -11 12.9 0
      vertex -3.23659 5.5938 0
    endloop
  endfacet
  facet normal 0 0 -1
    outer loop
      vertex -3.23659 5.5938 0
      vertex -11 12.9 0
      vertex -3.2011 5.75183 0
    endloop
  endfacet
  facet normal 0 0 -1
    outer loop
      vertex -3.2011 5.75183 0
      vertex -11 12.9 0
      vertex -3.1579 5.90794 0
    endloop
  endfacet
  facet normal 0 0 -1
    outer loop
      vertex -3.1579 5.90794 0
      vertex -11 12.9 0
      vertex -3.10709 6.06174 0
    endloop
  endfacet
  facet normal 0 0 -1
    outer loop
      vertex -3.10709 6.06174 0
      vertex -11 12.9 0
      vertex -3.0488 6.21285 0
    endloop
  endfacet
  facet normal 0 0 -1
    outer loop
      vertex -3.0488 6.21285 0
      vertex -11 12.9 0
      vertex -2.98316 6.36093 0
    endloop
  endfacet
  facet normal 0 0 -1
    outer loop
      vertex -2.0935 7.50093 0
      vertex -11 12.9 0
      vertex 0 12.9 0
    endloop
  endfacet
  facet normal 0 1 -0
    outer loop
      vertex 0 12.9 0
      vertex -11 12.9 8
      vertex 0 12.9 8
    endloop
  endfacet
  facet normal 0 1 0
    outer loop
      vertex -11 12.9 8
      vertex 0 12.9 0
      vertex -11 12.9 0
    endloop
  endfacet
  facet normal 0 0 1
    outer loop
      vertex 0 9.9 8
      vertex 5 11.4 8
      vertex 0 12.9 8
    endloop
  endfacet
  facet normal 0 0 1
    outer loop
      vertex 5 11.4 8
      vertex 0 9.9 8
      vertex 5 9.9 8
    endloop
  endfacet
  facet normal 0 0 1
    outer loop
      vertex -1.69654 7.7805 8
      vertex 0 9.9 8
      vertex 0 12.9 8
    endloop
  endfacet
  facet normal 0 0 1
    outer loop
      vertex 0 9.9 8
      vertex -0.161922 8.24602 8
      vertex 0 8.25 8
    endloop
  endfacet
  facet normal 0 0 1
    outer loop
      vertex 0 9.9 8
      vertex -0.323456 8.23411 8
      vertex -0.161922 8.24602 8
    endloop
  endfacet
  facet normal 0 0 1
    outer loop
      vertex 0 9.9 8
      vertex -0.48421 8.21428 8
      vertex -0.323456 8.23411 8
    endloop
  endfacet
  facet normal 0 0 1
    outer loop
      vertex 0 9.9 8
      vertex -0.643798 8.18659 8
      vertex -0.48421 8.21428 8
    endloop
  endfacet
  facet normal 0 0 1
    outer loop
      vertex 0 9.9 8
      vertex -0.801834 8.1511 8
      vertex -0.643798 8.18659 8
    endloop
  endfacet
  facet normal 0 0 1
    outer loop
      vertex 0 9.9 8
      vertex -0.957939 8.1079 8
      vertex -0.801834 8.1511 8
    endloop
  endfacet
  facet normal 0 0 1
    outer loop
      vertex 0 9.9 8
      vertex -1.11174 8.05709 8
      vertex -0.957939 8.1079 8
    endloop
  endfacet
  facet normal 0 0 1
    outer loop
      vertex 0 9.9 8
      vertex -1.26285 7.9988 8
      vertex -1.11174 8.05709 8
    endloop
  endfacet
  facet normal 0 0 1
    outer loop
      vertex 0 9.9 8
      vertex -1.41093 7.93316 8
      vertex -1.26285 7.9988 8
    endloop
  endfacet
  facet normal 0 0 1
    outer loop
      vertex 0 9.9 8
      vertex -1.55561 7.86034 8
      vertex -1.41093 7.93316 8
    endloop
  endfacet
  facet normal 0 0 1
    outer loop
      vertex 0 9.9 8
      vertex -1.69654 7.7805 8
      vertex -1.55561 7.86034 8
    endloop
  endfacet
  facet normal 0 0 1
    outer loop
      vertex 0 12.9 8
      vertex -1.83338 7.69385 8
      vertex -1.69654 7.7805 8
    endloop
  endfacet
  facet normal 0 0 1
    outer loop
      vertex 0 12.9 8
      vertex -1.96581 7.60058 8
      vertex -1.83338 7.69385 8
    endloop
  endfacet
  facet normal 0 0 1
    outer loop
      vertex 0 12.9 8
      vertex -2.0935 7.50093 8
      vertex -1.96581 7.60058 8
    endloop
  endfacet
  facet normal -0 0 1
    outer loop
      vertex -11 12.9 8
      vertex -2.0935 7.50093 8
      vertex 0 12.9 8
    endloop
  endfacet
  facet normal 0 0 1
    outer loop
      vertex -2.0935 7.50093 8
      vertex -11 12.9 8
      vertex -2.21614 7.39514 8
    endloop
  endfacet
  facet normal 0 0 1
    outer loop
      vertex -2.21614 7.39514 8
      vertex -11 12.9 8
      vertex -2.33345 7.28345 8
    endloop
  endfacet
  facet normal 0 0 1
    outer loop
      vertex -2.33345 7.28345 8
      vertex -11 12.9 8
      vertex -2.44514 7.16614 8
    endloop
  endfacet
  facet normal 0 0 1
    outer loop
      vertex -2.44514 7.16614 8
      vertex -11 12.9 8
      vertex -2.55093 7.0435 8
    endloop
  endfacet
  facet normal 0 0 1
    outer loop
      vertex -2.55093 7.0435 8
      vertex -11 12.9 8
      vertex -2.65058 6.91581 8
    endloop
  endfacet
  facet normal 0 0 1
    outer loop
      vertex -2.65058 6.91581 8
      vertex -11 12.9 8
      vertex -2.74385 6.78338 8
    endloop
  endfacet
  facet normal 0 0 1
    outer loop
      vertex -2.74385 6.78338 8
      vertex -11 12.9 8
      vertex -2.8305 6.64654 8
    endloop
  endfacet
  facet normal 0 0 1
    outer loop
      vertex -2.8305 6.64654 8
      vertex -11 12.9 8
      vertex -2.91034 6.50561 8
    endloop
  endfacet
  facet normal 0 0 1
    outer loop
      vertex -3.29602 5.11192 8
      vertex -11 12.9 8
      vertex -3.3 4.95 8
    endloop
  endfacet
  facet normal 0 0 1
    outer loop
      vertex -3.28411 5.27346 8
      vertex -11 12.9 8
      vertex -3.29602 5.11192 8
    endloop
  endfacet
  facet normal 0 0 1
    outer loop
      vertex -3.26428 5.43421 8
      vertex -11 12.9 8
      vertex -3.28411 5.27346 8
    endloop
  endfacet
  facet normal 0 0 1
    outer loop
      vertex -3.23659 5.5938 8
      vertex -11 12.9 8
      vertex -3.26428 5.43421 8
    endloop
  endfacet
  facet normal 0 0 1
    outer loop
      vertex -3.2011 5.75183 8
      vertex -11 12.9 8
      vertex -3.23659 5.5938 8
    endloop
  endfacet
  facet normal 0 0 1
    outer loop
      vertex -3.1579 5.90794 8
      vertex -11 12.9 8
      vertex -3.2011 5.75183 8
    endloop
  endfacet
  facet normal 0 0 1
    outer loop
      vertex -3.10709 6.06174 8
      vertex -11 12.9 8
      vertex -3.1579 5.90794 8
    endloop
  endfacet
  facet normal 0 0 1
    outer loop
      vertex -3.0488 6.21285 8
      vertex -11 12.9 8
      vertex -3.10709 6.06174 8
    endloop
  endfacet
  facet normal 0 0 1
    outer loop
      vertex -2.98316 6.36093 8
      vertex -11 12.9 8
      vertex -3.0488 6.21285 8
    endloop
  endfacet
  facet normal 0 0 1
    outer loop
      vertex -2.91034 6.50561 8
      vertex -11 12.9 8
      vertex -2.98316 6.36093 8
    endloop
  endfacet
  facet normal 0 0 1
    outer loop
      vertex 5 9.9 8
      vertex 6.73277 10.65 8
      vertex 5 11.4 8
    endloop
  endfacet
  facet normal 0 0 1
    outer loop
      vertex 6.73277 10.65 8
      vertex 5 9.9 8
      vertex 5.27249 9.62751 8
    endloop
  endfacet
  facet normal 0 0 1
    outer loop
      vertex 5.27249 9.62751 8
      vertex 5 9.9 8
      vertex 5 9.62751 8
    endloop
  endfacet
  facet normal 0 0 1
    outer loop
      vertex -0.161922 1.65397 8
      vertex 0 0 8
      vertex 0 1.65 8
    endloop
  endfacet
  facet normal 0 0 1
    outer loop
      vertex -0.323456 1.66589 8
      vertex 0 0 8
      vertex -0.161922 1.65397 8
    endloop
  endfacet
  facet normal 0 0 1
    outer loop
      vertex -0.48421 1.68572 8
      vertex 0 0 8
      vertex -0.323456 1.66589 8
    endloop
  endfacet
  facet normal 0 0 1
    outer loop
      vertex -0.643798 1.71341 8
      vertex 0 0 8
      vertex -0.48421 1.68572 8
    endloop
  endfacet
  facet normal 0 0 1
    outer loop
      vertex -0.801834 1.7489 8
      vertex 0 0 8
      vertex -0.643798 1.71341 8
    endloop
  endfacet
  facet normal 0 0 1
    outer loop
      vertex -0.957939 1.7921 8
      vertex 0 0 8
      vertex -0.801834 1.7489 8
    endloop
  endfacet
  facet normal 0 0 1
    outer loop
      vertex -1.11174 1.8429 8
      vertex 0 0 8
      vertex -0.957939 1.7921 8
    endloop
  endfacet
  facet normal 0 0 1
    outer loop
      vertex -1.26285 1.9012 8
      vertex 0 0 8
      vertex -1.11174 1.8429 8
    endloop
  endfacet
  facet normal 0 0 1
    outer loop
      vertex -1.41093 1.96684 8
      vertex 0 0 8
      vertex -1.26285 1.9012 8
    endloop
  endfacet
  facet normal 0 0 1
    outer loop
      vertex -1.55561 2.03966 8
      vertex 0 0 8
      vertex -1.41093 1.96684 8
    endloop
  endfacet
  facet normal 0 0 1
    outer loop
      vertex -1.69654 2.1195 8
      vertex 0 0 8
      vertex -1.55561 2.03966 8
    endloop
  endfacet
  facet normal 0 0 1
    outer loop
      vertex 0 0 8
      vertex -1.69654 2.1195 8
      vertex 0 -3 8
    endloop
  endfacet
  facet normal 0 0 1
    outer loop
      vertex -1.83338 2.20615 8
      vertex 0 -3 8
      vertex -1.69654 2.1195 8
    endloop
  endfacet
  facet normal 0 0 1
    outer loop
      vertex -1.96581 2.29941 8
      vertex 0 -3 8
      vertex -1.83338 2.20615 8
    endloop
  endfacet
  facet normal 0 0 1
    outer loop
      vertex -2.0935 2.39907 8
      vertex 0 -3 8
      vertex -1.96581 2.29941 8
    endloop
  endfacet
  facet normal 0 0 1
    outer loop
      vertex -11 -3 8
      vertex -2.0935 2.39907 8
      vertex -2.21614 2.50486 8
    endloop
  endfacet
  facet normal 0 0 1
    outer loop
      vertex -11 -3 8
      vertex -2.21614 2.50486 8
      vertex -2.33345 2.61655 8
    endloop
  endfacet
  facet normal 0 0 1
    outer loop
      vertex -11 -3 8
      vertex -2.33345 2.61655 8
      vertex -2.44514 2.73386 8
    endloop
  endfacet
  facet normal 0 0 1
    outer loop
      vertex -11 -3 8
      vertex -2.44514 2.73386 8
      vertex -2.55093 2.8565 8
    endloop
  endfacet
  facet normal 0 0 1
    outer loop
      vertex -11 -3 8
      vertex -2.55093 2.8565 8
      vertex -2.65058 2.98419 8
    endloop
  endfacet
  facet normal 0 0 1
    outer loop
      vertex -11 -3 8
      vertex -2.65058 2.98419 8
      vertex -2.74385 3.11662 8
    endloop
  endfacet
  facet normal 0 0 1
    outer loop
      vertex -11 -3 8
      vertex -2.74385 3.11662 8
      vertex -2.8305 3.25346 8
    endloop
  endfacet
  facet normal 0 0 1
    outer loop
      vertex -11 -3 8
      vertex -2.8305 3.25346 8
      vertex -2.91034 3.39439 8
    endloop
  endfacet
  facet normal 0 0 1
    outer loop
      vertex -11 -3 8
      vertex -2.91034 3.39439 8
      vertex -2.98316 3.53907 8
    endloop
  endfacet
  facet normal 0 0 1
    outer loop
      vertex -11 -3 8
      vertex -3.3 4.95 8
      vertex -11 12.9 8
    endloop
  endfacet
  facet normal 0 0 1
    outer loop
      vertex -3.3 4.95 8
      vertex -11 -3 8
      vertex -3.29602 4.78808 8
    endloop
  endfacet
  facet normal 0 0 1
    outer loop
      vertex -3.29602 4.78808 8
      vertex -11 -3 8
      vertex -3.28411 4.62654 8
    endloop
  endfacet
  facet normal 0 0 1
    outer loop
      vertex -3.28411 4.62654 8
      vertex -11 -3 8
      vertex -3.26428 4.46579 8
    endloop
  endfacet
  facet normal 0 0 1
    outer loop
      vertex -3.26428 4.46579 8
      vertex -11 -3 8
      vertex -3.23659 4.3062 8
    endloop
  endfacet
  facet normal 0 0 1
    outer loop
      vertex -3.23659 4.3062 8
      vertex -11 -3 8
      vertex -3.2011 4.14816 8
    endloop
  endfacet
  facet normal 0 0 1
    outer loop
      vertex -3.2011 4.14816 8
      vertex -11 -3 8
      vertex -3.1579 3.99206 8
    endloop
  endfacet
  facet normal 0 0 1
    outer loop
      vertex -3.1579 3.99206 8
      vertex -11 -3 8
      vertex -3.10709 3.83826 8
    endloop
  endfacet
  facet normal 0 0 1
    outer loop
      vertex -3.10709 3.83826 8
      vertex -11 -3 8
      vertex -3.0488 3.68714 8
    endloop
  endfacet
  facet normal 0 0 1
    outer loop
      vertex -3.0488 3.68714 8
      vertex -11 -3 8
      vertex -2.98316 3.53907 8
    endloop
  endfacet
  facet normal 0 0 1
    outer loop
      vertex -2.0935 2.39907 8
      vertex -11 -3 8
      vertex 0 -3 8
    endloop
  endfacet
  facet normal 0 0 1
    outer loop
      vertex 5 0 8
      vertex 5.27249 0.272491 8
      vertex 5 0.272491 8
    endloop
  endfacet
  facet normal 0 0 1
    outer loop
      vertex 5.27249 0.272491 8
      vertex 5 0 8
      vertex 6.73277 -0.75 8
    endloop
  endfacet
  facet normal 0 0 1
    outer loop
      vertex 5 0 8
      vertex 5 -1.5 8
      vertex 6.73277 -0.75 8
    endloop
  endfacet
  facet normal -0 0 1
    outer loop
      vertex 0 0 8
      vertex 5 -1.5 8
      vertex 5 0 8
    endloop
  endfacet
  facet normal 0 0 1
    outer loop
      vertex 5 -1.5 8
      vertex 0 0 8
      vertex 0 -3 8
    endloop
  endfacet
  facet normal 0 -1 0
    outer loop
      vertex -11 -3 0
      vertex 0 -3 8
      vertex -11 -3 8
    endloop
  endfacet
  facet normal 0 -1 -0
    outer loop
      vertex 0 -3 8
      vertex -11 -3 0
      vertex 0 -3 0
    endloop
  endfacet
  facet normal 0.397221 -0.917723 0
    outer loop
      vertex 5 -1.5 0
      vertex 6.73277 -0.75 8
      vertex 5 -1.5 8
    endloop
  endfacet
  facet normal 0.397221 -0.917723 0
    outer loop
      vertex 6.73277 -0.75 8
      vertex 5 -1.5 0
      vertex 6.73277 -0.75 0
    endloop
  endfacet
  facet normal 0.573573 0.819154 -0
    outer loop
      vertex 6.73277 -0.75 0
      vertex 5.27249 0.272491 8
      vertex 6.73277 -0.75 8
    endloop
  endfacet
  facet normal 0.573573 0.819154 0
    outer loop
      vertex 5.27249 0.272491 8
      vertex 6.73277 -0.75 0
      vertex 5.27249 0.272491 0
    endloop
  endfacet
  facet normal 0 1 -0
    outer loop
      vertex 5.27249 0.272491 0
      vertex 5 0.272491 8
      vertex 5.27249 0.272491 8
    endloop
  endfacet
  facet normal 0 1 0
    outer loop
      vertex 5 0.272491 8
      vertex 5.27249 0.272491 0
      vertex 5 0.272491 0
    endloop
  endfacet
  facet normal -1 0 0
    outer loop
      vertex 5 0 0
      vertex 5 0.272491 8
      vertex 5 0.272491 0
    endloop
  endfacet
  facet normal -1 -0 0
    outer loop
      vertex 5 0.272491 8
      vertex 5 0 0
      vertex 5 0 8
    endloop
  endfacet
  facet normal 0 1 -0
    outer loop
      vertex 5 0 0
      vertex 0 0 8
      vertex 5 0 8
    endloop
  endfacet
  facet normal 0 1 0
    outer loop
      vertex 0 0 8
      vertex 5 0 0
      vertex 0 0 0
    endloop
  endfacet
  facet normal 0.287348 -0.957826 0
    outer loop
      vertex 0 -3 0
      vertex 5 -1.5 8
      vertex 0 -3 8
    endloop
  endfacet
  facet normal 0.287348 -0.957826 0
    outer loop
      vertex 5 -1.5 8
      vertex 0 -3 0
      vertex 5 -1.5 0
    endloop
  endfacet
  facet normal 0.397221 0.917723 -0
    outer loop
      vertex 6.73277 10.65 0
      vertex 5 11.4 8
      vertex 6.73277 10.65 8
    endloop
  endfacet
  facet normal 0.397221 0.917723 0
    outer loop
      vertex 5 11.4 8
      vertex 6.73277 10.65 0
      vertex 5 11.4 0
    endloop
  endfacet
  facet normal 0.573573 -0.819154 0
    outer loop
      vertex 5.27249 9.62751 0
      vertex 6.73277 10.65 8
      vertex 5.27249 9.62751 8
    endloop
  endfacet
  facet normal 0.573573 -0.819154 0
    outer loop
      vertex 6.73277 10.65 8
      vertex 5.27249 9.62751 0
      vertex 6.73277 10.65 0
    endloop
  endfacet
  facet normal 0 -1 0
    outer loop
      vertex 5 9.62751 0
      vertex 5.27249 9.62751 8
      vertex 5 9.62751 8
    endloop
  endfacet
  facet normal 0 -1 -0
    outer loop
      vertex 5.27249 9.62751 8
      vertex 5 9.62751 0
      vertex 5.27249 9.62751 0
    endloop
  endfacet
  facet normal -1 0 0
    outer loop
      vertex 5 9.62751 0
      vertex 5 9.9 8
      vertex 5 9.9 0
    endloop
  endfacet
  facet normal -1 -0 0
    outer loop
      vertex 5 9.9 8
      vertex 5 9.62751 0
      vertex 5 9.62751 8
    endloop
  endfacet
  facet normal 0 -1 0
    outer loop
      vertex 0 9.9 0
      vertex 5 9.9 8
      vertex 0 9.9 8
    endloop
  endfacet
  facet normal 0 -1 -0
    outer loop
      vertex 5 9.9 8
      vertex 0 9.9 0
      vertex 5 9.9 0
    endloop
  endfacet
  facet normal 0.287348 0.957826 -0
    outer loop
      vertex 5 11.4 0
      vertex 0 12.9 8
      vertex 5 11.4 8
    endloop
  endfacet
  facet normal 0.287348 0.957826 0
    outer loop
      vertex 0 12.9 8
      vertex 5 11.4 0
      vertex 0 12.9 0
    endloop
  endfacet
  facet normal 0.575818 -0.817578 0
    outer loop
      vertex -1.96581 7.60058 0
      vertex -1.83338 7.69385 8
      vertex -1.96581 7.60058 8
    endloop
  endfacet
  facet normal 0.575818 -0.817578 0
    outer loop
      vertex -1.83338 7.69385 8
      vertex -1.96581 7.60058 0
      vertex -1.83338 7.69385 0
    endloop
  endfacet
  facet normal 0.975698 -0.21912 0
    outer loop
      vertex -3.23659 5.5938 8
      vertex -3.2011 5.75183 0
      vertex -3.2011 5.75183 8
    endloop
  endfacet
  facet normal 0.975698 -0.21912 0
    outer loop
      vertex -3.2011 5.75183 0
      vertex -3.23659 5.5938 8
      vertex -3.23659 5.5938 0
    endloop
  endfacet
  facet normal 0.992477 -0.122431 0
    outer loop
      vertex -3.28411 5.27346 8
      vertex -3.26428 5.43421 0
      vertex -3.26428 5.43421 8
    endloop
  endfacet
  facet normal 0.992477 -0.122431 0
    outer loop
      vertex -3.26428 5.43421 0
      vertex -3.28411 5.27346 8
      vertex -3.28411 5.27346 0
    endloop
  endfacet
  facet normal 0.757209 -0.653173 0
    outer loop
      vertex -2.55093 7.0435 8
      vertex -2.44514 7.16614 0
      vertex -2.44514 7.16614 8
    endloop
  endfacet
  facet normal 0.757209 -0.653173 0
    outer loop
      vertex -2.44514 7.16614 0
      vertex -2.55093 7.0435 8
      vertex -2.55093 7.0435 0
    endloop
  endfacet
  facet normal 0.870076 -0.492918 0
    outer loop
      vertex -2.91034 6.50561 8
      vertex -2.8305 6.64654 0
      vertex -2.8305 6.64654 8
    endloop
  endfacet
  facet normal 0.870076 -0.492918 0
    outer loop
      vertex -2.8305 6.64654 0
      vertex -2.91034 6.50561 8
      vertex -2.91034 6.50561 0
    endloop
  endfacet
  facet normal 0.073531 -0.997293 0
    outer loop
      vertex -0.323456 8.23411 0
      vertex -0.161922 8.24602 8
      vertex -0.323456 8.23411 8
    endloop
  endfacet
  facet normal 0.073531 -0.997293 0
    outer loop
      vertex -0.161922 8.24602 8
      vertex -0.323456 8.23411 0
      vertex -0.161922 8.24602 0
    endloop
  endfacet
  facet normal 0.266712 -0.963776 0
    outer loop
      vertex -0.957939 8.1079 0
      vertex -0.801834 8.1511 8
      vertex -0.957939 8.1079 8
    endloop
  endfacet
  facet normal 0.266712 -0.963776 0
    outer loop
      vertex -0.801834 8.1511 8
      vertex -0.957939 8.1079 0
      vertex -0.801834 8.1511 0
    endloop
  endfacet
  facet normal 0.449583 -0.893239 0
    outer loop
      vertex -1.55561 7.86034 0
      vertex -1.41093 7.93316 8
      vertex -1.55561 7.86034 8
    endloop
  endfacet
  facet normal 0.449583 -0.893239 0
    outer loop
      vertex -1.41093 7.93316 8
      vertex -1.55561 7.86034 0
      vertex -1.41093 7.93316 0
    endloop
  endfacet
  facet normal 0.817578 0.575818 0
    outer loop
      vertex -2.65058 2.98419 8
      vertex -2.74385 3.11662 0
      vertex -2.74385 3.11662 8
    endloop
  endfacet
  facet normal 0.817578 0.575818 0
    outer loop
      vertex -2.74385 3.11662 0
      vertex -2.65058 2.98419 8
      vertex -2.65058 2.98419 0
    endloop
  endfacet
  facet normal 0.975701 0.219107 0
    outer loop
      vertex -3.2011 4.14816 8
      vertex -3.23659 4.3062 0
      vertex -3.23659 4.3062 8
    endloop
  endfacet
  facet normal 0.975701 0.219107 0
    outer loop
      vertex -3.23659 4.3062 0
      vertex -3.2011 4.14816 8
      vertex -3.2011 4.14816 0
    endloop
  endfacet
  facet normal 0.999698 -0.0245726 0
    outer loop
      vertex -3.3 4.95 8
      vertex -3.29602 5.11192 0
      vertex -3.29602 5.11192 8
    endloop
  endfacet
  facet normal 0.999698 -0.0245726 0
    outer loop
      vertex -3.29602 5.11192 0
      vertex -3.3 4.95 8
      vertex -3.3 4.95 0
    endloop
  endfacet
  facet normal 0.949526 -0.313689 0
    outer loop
      vertex -3.1579 5.90794 8
      vertex -3.10709 6.06174 0
      vertex -3.10709 6.06174 8
    endloop
  endfacet
  facet normal 0.949526 -0.313689 0
    outer loop
      vertex -3.10709 6.06174 0
      vertex -3.1579 5.90794 8
      vertex -3.1579 5.90794 0
    endloop
  endfacet
  facet normal 0.963778 -0.266704 0
    outer loop
      vertex -3.2011 5.75183 8
      vertex -3.1579 5.90794 0
      vertex -3.1579 5.90794 8
    endloop
  endfacet
  facet normal 0.963778 -0.266704 0
    outer loop
      vertex -3.1579 5.90794 0
      vertex -3.2011 5.75183 8
      vertex -3.2011 5.75183 0
    endloop
  endfacet
  facet normal 0.985279 -0.170953 0
    outer loop
      vertex -3.26428 5.43421 8
      vertex -3.23659 5.5938 0
      vertex -3.23659 5.5938 8
    endloop
  endfacet
  facet normal 0.985279 -0.170953 0
    outer loop
      vertex -3.23659 5.5938 0
      vertex -3.26428 5.43421 8
      vertex -3.26428 5.43421 0
    endloop
  endfacet
  facet normal 0.914208 -0.405245 0
    outer loop
      vertex -3.0488 6.21285 8
      vertex -2.98316 6.36093 0
      vertex -2.98316 6.36093 8
    endloop
  endfacet
  facet normal 0.914208 -0.405245 0
    outer loop
      vertex -2.98316 6.36093 0
      vertex -3.0488 6.21285 8
      vertex -3.0488 6.21285 0
    endloop
  endfacet
  facet normal 0.844862 -0.534985 0
    outer loop
      vertex -2.8305 6.64654 8
      vertex -2.74385 6.78338 0
      vertex -2.74385 6.78338 8
    endloop
  endfacet
  facet normal 0.844862 -0.534985 0
    outer loop
      vertex -2.74385 6.78338 0
      vertex -2.8305 6.64654 8
      vertex -2.8305 6.64654 0
    endloop
  endfacet
  facet normal 0.788347 -0.615231 0
    outer loop
      vertex -2.65058 6.91581 8
      vertex -2.55093 7.0435 0
      vertex -2.55093 7.0435 8
    endloop
  endfacet
  facet normal 0.788347 -0.615231 0
    outer loop
      vertex -2.55093 7.0435 0
      vertex -2.65058 6.91581 8
      vertex -2.65058 6.91581 0
    endloop
  endfacet
  facet normal 0.724242 -0.689546 0
    outer loop
      vertex -2.44514 7.16614 8
      vertex -2.33345 7.28345 0
      vertex -2.33345 7.28345 8
    endloop
  endfacet
  facet normal 0.724242 -0.689546 0
    outer loop
      vertex -2.33345 7.28345 0
      vertex -2.44514 7.16614 8
      vertex -2.44514 7.16614 0
    endloop
  endfacet
  facet normal 0.817578 -0.575818 0
    outer loop
      vertex -2.74385 6.78338 8
      vertex -2.65058 6.91581 0
      vertex -2.65058 6.91581 8
    endloop
  endfacet
  facet normal 0.817578 -0.575818 0
    outer loop
      vertex -2.65058 6.91581 0
      vertex -2.74385 6.78338 8
      vertex -2.74385 6.78338 0
    endloop
  endfacet
  facet normal 0.359897 -0.932992 0
    outer loop
      vertex -1.26285 7.9988 0
      vertex -1.11174 8.05709 8
      vertex -1.26285 7.9988 8
    endloop
  endfacet
  facet normal 0.359897 -0.932992 0
    outer loop
      vertex -1.11174 8.05709 8
      vertex -1.26285 7.9988 0
      vertex -1.11174 8.05709 0
    endloop
  endfacet
  facet normal 0.219112 -0.9757 0
    outer loop
      vertex -0.801834 8.1511 0
      vertex -0.643798 8.18659 8
      vertex -0.801834 8.1511 8
    endloop
  endfacet
  facet normal 0.219112 -0.9757 0
    outer loop
      vertex -0.643798 8.18659 8
      vertex -0.801834 8.1511 0
      vertex -0.643798 8.18659 0
    endloop
  endfacet
  facet normal 0.122428 -0.992477 0
    outer loop
      vertex -0.48421 8.21428 0
      vertex -0.323456 8.23411 8
      vertex -0.48421 8.21428 8
    endloop
  endfacet
  facet normal 0.122428 -0.992477 0
    outer loop
      vertex -0.323456 8.23411 8
      vertex -0.48421 8.21428 0
      vertex -0.323456 8.23411 0
    endloop
  endfacet
  facet normal 0.0245723 -0.999698 0
    outer loop
      vertex -0.161922 8.24602 0
      vertex 0 8.25 8
      vertex -0.161922 8.24602 8
    endloop
  endfacet
  facet normal 0.0245723 -0.999698 0
    outer loop
      vertex 0 8.25 8
      vertex -0.161922 8.24602 0
      vertex 0 8.25 0
    endloop
  endfacet
  facet normal 0.170955 -0.985279 0
    outer loop
      vertex -0.643798 8.18659 0
      vertex -0.48421 8.21428 8
      vertex -0.643798 8.18659 8
    endloop
  endfacet
  facet normal 0.170955 -0.985279 0
    outer loop
      vertex -0.48421 8.21428 8
      vertex -0.643798 8.18659 0
      vertex -0.48421 8.21428 0
    endloop
  endfacet
  facet normal 0.492918 -0.870076 0
    outer loop
      vertex -1.69654 7.7805 0
      vertex -1.55561 7.86034 8
      vertex -1.69654 7.7805 8
    endloop
  endfacet
  facet normal 0.492918 -0.870076 0
    outer loop
      vertex -1.55561 7.86034 8
      vertex -1.69654 7.7805 0
      vertex -1.55561 7.86034 0
    endloop
  endfacet
  facet normal 0.405245 -0.914208 0
    outer loop
      vertex -1.41093 7.93316 0
      vertex -1.26285 7.9988 8
      vertex -1.41093 7.93316 8
    endloop
  endfacet
  facet normal 0.405245 -0.914208 0
    outer loop
      vertex -1.26285 7.9988 8
      vertex -1.41093 7.93316 0
      vertex -1.26285 7.9988 0
    endloop
  endfacet
  facet normal 0.534985 -0.844862 0
    outer loop
      vertex -1.83338 7.69385 0
      vertex -1.69654 7.7805 8
      vertex -1.83338 7.69385 8
    endloop
  endfacet
  facet normal 0.534985 -0.844862 0
    outer loop
      vertex -1.69654 7.7805 8
      vertex -1.83338 7.69385 0
      vertex -1.69654 7.7805 0
    endloop
  endfacet
  facet normal 0.615231 -0.788347 0
    outer loop
      vertex -2.0935 7.50093 0
      vertex -1.96581 7.60058 8
      vertex -2.0935 7.50093 8
    endloop
  endfacet
  facet normal 0.615231 -0.788347 0
    outer loop
      vertex -1.96581 7.60058 8
      vertex -2.0935 7.50093 0
      vertex -1.96581 7.60058 0
    endloop
  endfacet
  facet normal 0.689546 -0.724242 0
    outer loop
      vertex -2.33345 7.28345 0
      vertex -2.21614 7.39514 8
      vertex -2.33345 7.28345 8
    endloop
  endfacet
  facet normal 0.689546 -0.724242 0
    outer loop
      vertex -2.21614 7.39514 8
      vertex -2.33345 7.28345 0
      vertex -2.21614 7.39514 0
    endloop
  endfacet
  facet normal 0.359951 0.932971 -0
    outer loop
      vertex -1.11174 1.8429 0
      vertex -1.26285 1.9012 8
      vertex -1.11174 1.8429 8
    endloop
  endfacet
  facet normal 0.359951 0.932971 0
    outer loop
      vertex -1.26285 1.9012 8
      vertex -1.11174 1.8429 0
      vertex -1.26285 1.9012 0
    endloop
  endfacet
  facet normal 0.757209 0.653173 0
    outer loop
      vertex -2.44514 2.73386 8
      vertex -2.55093 2.8565 0
      vertex -2.55093 2.8565 8
    endloop
  endfacet
  facet normal 0.757209 0.653173 0
    outer loop
      vertex -2.55093 2.8565 0
      vertex -2.44514 2.73386 8
      vertex -2.44514 2.73386 0
    endloop
  endfacet
  facet normal 0.997293 -0.0735283 0
    outer loop
      vertex -3.29602 5.11192 8
      vertex -3.28411 5.27346 0
      vertex -3.28411 5.27346 8
    endloop
  endfacet
  facet normal 0.997293 -0.0735283 0
    outer loop
      vertex -3.28411 5.27346 0
      vertex -3.29602 5.11192 8
      vertex -3.29602 5.11192 0
    endloop
  endfacet
  facet normal 0.932992 -0.359897 0
    outer loop
      vertex -3.10709 6.06174 8
      vertex -3.0488 6.21285 0
      vertex -3.0488 6.21285 8
    endloop
  endfacet
  facet normal 0.932992 -0.359897 0
    outer loop
      vertex -3.0488 6.21285 0
      vertex -3.10709 6.06174 8
      vertex -3.10709 6.06174 0
    endloop
  endfacet
  facet normal 0.893239 -0.449583 0
    outer loop
      vertex -2.98316 6.36093 8
      vertex -2.91034 6.50561 0
      vertex -2.91034 6.50561 8
    endloop
  endfacet
  facet normal 0.893239 -0.449583 0
    outer loop
      vertex -2.91034 6.50561 0
      vertex -2.98316 6.36093 8
      vertex -2.98316 6.36093 0
    endloop
  endfacet
  facet normal 0.313687 -0.949526 0
    outer loop
      vertex -1.11174 8.05709 0
      vertex -0.957939 8.1079 8
      vertex -1.11174 8.05709 8
    endloop
  endfacet
  facet normal 0.313687 -0.949526 0
    outer loop
      vertex -0.957939 8.1079 8
      vertex -1.11174 8.05709 0
      vertex -0.957939 8.1079 0
    endloop
  endfacet
  facet normal 0.653173 -0.757209 0
    outer loop
      vertex -2.21614 7.39514 0
      vertex -2.0935 7.50093 8
      vertex -2.21614 7.39514 8
    endloop
  endfacet
  facet normal 0.653173 -0.757209 0
    outer loop
      vertex -2.0935 7.50093 8
      vertex -2.21614 7.39514 0
      vertex -2.0935 7.50093 0
    endloop
  endfacet
  facet normal 0.689546 0.724242 -0
    outer loop
      vertex -2.21614 2.50486 0
      vertex -2.33345 2.61655 8
      vertex -2.21614 2.50486 8
    endloop
  endfacet
  facet normal 0.689546 0.724242 0
    outer loop
      vertex -2.33345 2.61655 8
      vertex -2.21614 2.50486 0
      vertex -2.33345 2.61655 0
    endloop
  endfacet
  facet normal 0.170955 0.985279 -0
    outer loop
      vertex -0.48421 1.68572 0
      vertex -0.643798 1.71341 8
      vertex -0.48421 1.68572 8
    endloop
  endfacet
  facet normal 0.170955 0.985279 0
    outer loop
      vertex -0.643798 1.71341 8
      vertex -0.48421 1.68572 0
      vertex -0.643798 1.71341 0
    endloop
  endfacet
  facet normal 0.999698 0.0245726 0
    outer loop
      vertex -3.29602 4.78808 8
      vertex -3.3 4.95 0
      vertex -3.3 4.95 8
    endloop
  endfacet
  facet normal 0.999698 0.0245726 0
    outer loop
      vertex -3.3 4.95 0
      vertex -3.29602 4.78808 8
      vertex -3.29602 4.78808 0
    endloop
  endfacet
  facet normal 0.985279 0.170953 0
    outer loop
      vertex -3.23659 4.3062 8
      vertex -3.26428 4.46579 0
      vertex -3.26428 4.46579 8
    endloop
  endfacet
  facet normal 0.985279 0.170953 0
    outer loop
      vertex -3.26428 4.46579 0
      vertex -3.23659 4.3062 8
      vertex -3.23659 4.3062 0
    endloop
  endfacet
  facet normal 0.992477 0.122431 0
    outer loop
      vertex -3.26428 4.46579 8
      vertex -3.28411 4.62654 0
      vertex -3.28411 4.62654 8
    endloop
  endfacet
  facet normal 0.992477 0.122431 0
    outer loop
      vertex -3.28411 4.62654 0
      vertex -3.26428 4.46579 8
      vertex -3.26428 4.46579 0
    endloop
  endfacet
  facet normal 0.949526 0.313689 0
    outer loop
      vertex -3.10709 3.83826 8
      vertex -3.1579 3.99206 0
      vertex -3.1579 3.99206 8
    endloop
  endfacet
  facet normal 0.949526 0.313689 0
    outer loop
      vertex -3.1579 3.99206 0
      vertex -3.10709 3.83826 8
      vertex -3.10709 3.83826 0
    endloop
  endfacet
  facet normal 0.933 0.359877 0
    outer loop
      vertex -3.0488 3.68714 8
      vertex -3.10709 3.83826 0
      vertex -3.10709 3.83826 8
    endloop
  endfacet
  facet normal 0.933 0.359877 0
    outer loop
      vertex -3.10709 3.83826 0
      vertex -3.0488 3.68714 8
      vertex -3.0488 3.68714 0
    endloop
  endfacet
  facet normal 0.724242 0.689546 0
    outer loop
      vertex -2.33345 2.61655 8
      vertex -2.44514 2.73386 0
      vertex -2.44514 2.73386 8
    endloop
  endfacet
  facet normal 0.724242 0.689546 0
    outer loop
      vertex -2.44514 2.73386 0
      vertex -2.33345 2.61655 8
      vertex -2.33345 2.61655 0
    endloop
  endfacet
  facet normal 0.870076 0.492918 0
    outer loop
      vertex -2.8305 3.25346 8
      vertex -2.91034 3.39439 0
      vertex -2.91034 3.39439 8
    endloop
  endfacet
  facet normal 0.870076 0.492918 0
    outer loop
      vertex -2.91034 3.39439 0
      vertex -2.8305 3.25346 8
      vertex -2.8305 3.25346 0
    endloop
  endfacet
  facet normal 0.844862 0.534985 0
    outer loop
      vertex -2.74385 3.11662 8
      vertex -2.8305 3.25346 0
      vertex -2.8305 3.25346 8
    endloop
  endfacet
  facet normal 0.844862 0.534985 0
    outer loop
      vertex -2.8305 3.25346 0
      vertex -2.74385 3.11662 8
      vertex -2.74385 3.11662 0
    endloop
  endfacet
  facet normal 0.313632 0.949545 -0
    outer loop
      vertex -0.957939 1.7921 0
      vertex -1.11174 1.8429 8
      vertex -0.957939 1.7921 8
    endloop
  endfacet
  facet normal 0.313632 0.949545 0
    outer loop
      vertex -1.11174 1.8429 8
      vertex -0.957939 1.7921 0
      vertex -1.11174 1.8429 0
    endloop
  endfacet
  facet normal 0.122428 0.992477 -0
    outer loop
      vertex -0.323456 1.66589 0
      vertex -0.48421 1.68572 8
      vertex -0.323456 1.66589 8
    endloop
  endfacet
  facet normal 0.122428 0.992477 0
    outer loop
      vertex -0.48421 1.68572 8
      vertex -0.323456 1.66589 0
      vertex -0.48421 1.68572 0
    endloop
  endfacet
  facet normal 0.219112 0.9757 -0
    outer loop
      vertex -0.643798 1.71341 0
      vertex -0.801834 1.7489 8
      vertex -0.643798 1.71341 8
    endloop
  endfacet
  facet normal 0.219112 0.9757 0
    outer loop
      vertex -0.801834 1.7489 8
      vertex -0.643798 1.71341 0
      vertex -0.801834 1.7489 0
    endloop
  endfacet
  facet normal 0.615269 0.788317 -0
    outer loop
      vertex -1.96581 2.29941 0
      vertex -2.0935 2.39907 8
      vertex -1.96581 2.29941 8
    endloop
  endfacet
  facet normal 0.615269 0.788317 0
    outer loop
      vertex -2.0935 2.39907 8
      vertex -1.96581 2.29941 0
      vertex -2.0935 2.39907 0
    endloop
  endfacet
  facet normal 0.405245 0.914208 -0
    outer loop
      vertex -1.26285 1.9012 0
      vertex -1.41093 1.96684 8
      vertex -1.26285 1.9012 8
    endloop
  endfacet
  facet normal 0.405245 0.914208 0
    outer loop
      vertex -1.41093 1.96684 8
      vertex -1.26285 1.9012 0
      vertex -1.41093 1.96684 0
    endloop
  endfacet
  facet normal 0.449583 0.893239 -0
    outer loop
      vertex -1.41093 1.96684 0
      vertex -1.55561 2.03966 8
      vertex -1.41093 1.96684 8
    endloop
  endfacet
  facet normal 0.449583 0.893239 0
    outer loop
      vertex -1.55561 2.03966 8
      vertex -1.41093 1.96684 0
      vertex -1.55561 2.03966 0
    endloop
  endfacet
  facet normal 0.534985 0.844862 -0
    outer loop
      vertex -1.69654 2.1195 0
      vertex -1.83338 2.20615 8
      vertex -1.69654 2.1195 8
    endloop
  endfacet
  facet normal 0.534985 0.844862 0
    outer loop
      vertex -1.83338 2.20615 8
      vertex -1.69654 2.1195 0
      vertex -1.83338 2.20615 0
    endloop
  endfacet
  facet normal 0.997293 0.0735283 0
    outer loop
      vertex -3.28411 4.62654 8
      vertex -3.29602 4.78808 0
      vertex -3.29602 4.78808 8
    endloop
  endfacet
  facet normal 0.997293 0.0735283 0
    outer loop
      vertex -3.29602 4.78808 0
      vertex -3.28411 4.62654 8
      vertex -3.28411 4.62654 0
    endloop
  endfacet
  facet normal 0.963774 0.26672 0
    outer loop
      vertex -3.1579 3.99206 8
      vertex -3.2011 4.14816 0
      vertex -3.2011 4.14816 8
    endloop
  endfacet
  facet normal 0.963774 0.26672 0
    outer loop
      vertex -3.2011 4.14816 0
      vertex -3.1579 3.99206 8
      vertex -3.1579 3.99206 0
    endloop
  endfacet
  facet normal 0.788347 0.615231 0
    outer loop
      vertex -2.55093 2.8565 8
      vertex -2.65058 2.98419 0
      vertex -2.65058 2.98419 8
    endloop
  endfacet
  facet normal 0.788347 0.615231 0
    outer loop
      vertex -2.65058 2.98419 0
      vertex -2.55093 2.8565 8
      vertex -2.55093 2.8565 0
    endloop
  endfacet
  facet normal 0.893239 0.449583 0
    outer loop
      vertex -2.91034 3.39439 8
      vertex -2.98316 3.53907 0
      vertex -2.98316 3.53907 8
    endloop
  endfacet
  facet normal 0.893239 0.449583 0
    outer loop
      vertex -2.98316 3.53907 0
      vertex -2.91034 3.39439 8
      vertex -2.91034 3.39439 0
    endloop
  endfacet
  facet normal 0.914198 0.405268 0
    outer loop
      vertex -2.98316 3.53907 8
      vertex -3.0488 3.68714 0
      vertex -3.0488 3.68714 8
    endloop
  endfacet
  facet normal 0.914198 0.405268 0
    outer loop
      vertex -3.0488 3.68714 0
      vertex -2.98316 3.53907 8
      vertex -2.98316 3.53907 0
    endloop
  endfacet
  facet normal 0.0735924 0.997288 -0
    outer loop
      vertex -0.161922 1.65397 0
      vertex -0.323456 1.66589 8
      vertex -0.161922 1.65397 8
    endloop
  endfacet
  facet normal 0.0735924 0.997288 0
    outer loop
      vertex -0.323456 1.66589 8
      vertex -0.161922 1.65397 0
      vertex -0.323456 1.66589 0
    endloop
  endfacet
  facet normal 0.266712 0.963776 -0
    outer loop
      vertex -0.801834 1.7489 0
      vertex -0.957939 1.7921 8
      vertex -0.801834 1.7489 8
    endloop
  endfacet
  facet normal 0.266712 0.963776 0
    outer loop
      vertex -0.957939 1.7921 8
      vertex -0.801834 1.7489 0
      vertex -0.957939 1.7921 0
    endloop
  endfacet
  facet normal 0.653173 0.757209 -0
    outer loop
      vertex -2.0935 2.39907 0
      vertex -2.21614 2.50486 8
      vertex -2.0935 2.39907 8
    endloop
  endfacet
  facet normal 0.653173 0.757209 0
    outer loop
      vertex -2.21614 2.50486 8
      vertex -2.0935 2.39907 0
      vertex -2.21614 2.50486 0
    endloop
  endfacet
  facet normal 0.575776 0.817607 -0
    outer loop
      vertex -1.83338 2.20615 0
      vertex -1.96581 2.29941 8
      vertex -1.83338 2.20615 8
    endloop
  endfacet
  facet normal 0.575776 0.817607 0
    outer loop
      vertex -1.96581 2.29941 8
      vertex -1.83338 2.20615 0
      vertex -1.96581 2.29941 0
    endloop
  endfacet
  facet normal 0.492918 0.870076 -0
    outer loop
      vertex -1.55561 2.03966 0
      vertex -1.69654 2.1195 8
      vertex -1.55561 2.03966 8
    endloop
  endfacet
  facet normal 0.492918 0.870076 0
    outer loop
      vertex -1.69654 2.1195 8
      vertex -1.55561 2.03966 0
      vertex -1.69654 2.1195 0
    endloop
  endfacet
  facet normal 0.0245106 0.9997 -0
    outer loop
      vertex 0 1.65 0
      vertex -0.161922 1.65397 8
      vertex 0 1.65 8
    endloop
  endfacet
  facet normal 0.0245106 0.9997 0
    outer loop
      vertex -0.161922 1.65397 8
      vertex 0 1.65 0
      vertex -0.161922 1.65397 0
    endloop
  endfacet
endsolid OpenSCAD_Model
